<?xml version="1.0" standalone="no"?>
<!DOCTYPE svg PUBLIC "-//W3C//DTD SVG 20010904//EN"
 "http://www.w3.org/TR/2001/REC-SVG-20010904/DTD/svg10.dtd">
<svg version="1.0" xmlns="http://www.w3.org/2000/svg"
 width="600.000000pt" height="600.000000pt" viewBox="0 0 600.000000 600.000000"
 preserveAspectRatio="xMidYMid meet">
<metadata>
Created by potrace 1.14, written by Peter Selinger 2001-2017
</metadata>
<g transform="translate(0.000000,600.000000) scale(0.100000,-0.100000)"
fill="#000000" stroke="none">
<path d="M1290 5363 c0 -7 -8 -12 -17 -12 -60 -2 -83 -6 -83 -12 0 -4 -9 -6
-20 -4 -11 2 -22 -1 -25 -6 -4 -5 -11 -7 -16 -3 -5 3 -16 0 -24 -6 -8 -7 -22
-10 -30 -6 -9 3 -13 2 -10 -4 4 -6 -8 -13 -25 -16 -17 -4 -33 -11 -36 -15 -3
-5 -10 -7 -15 -4 -5 4 -9 1 -9 -4 0 -6 -3 -10 -7 -9 -12 2 -63 -24 -63 -33 0
-5 -7 -6 -15 -3 -8 4 -15 2 -15 -4 0 -5 -11 -13 -25 -16 -14 -4 -25 -11 -25
-16 0 -6 -11 -15 -25 -20 -14 -5 -25 -14 -25 -20 0 -6 -5 -8 -10 -5 -5 3 -10
-1 -10 -10 0 -9 -4 -13 -10 -10 -5 3 -10 1 -10 -4 0 -6 -4 -11 -10 -11 -12 0
-150 -143 -150 -156 0 -7 -52 -77 -63 -85 -5 -3 -8 -10 -8 -15 0 -5 -15 -39
-34 -75 -19 -37 -31 -69 -28 -73 4 -3 1 -6 -6 -6 -7 0 -10 -4 -7 -8 3 -5 -1
-20 -9 -35 -10 -19 -10 -27 -2 -31 8 -3 8 -5 -1 -5 -7 -1 -10 -5 -7 -11 3 -5
2 -10 -2 -10 -5 0 -9 -21 -8 -46 0 -25 -4 -48 -9 -51 -5 -4 -6 0 -1 8 5 8 4
11 0 6 -5 -4 -10 -18 -12 -30 -2 -17 -1 -19 7 -7 6 9 10 10 10 3 0 -6 -5 -15
-11 -18 -13 -9 -9 -175 6 -175 6 0 7 -3 0 -8 -14 -10 -15 -52 -1 -52 6 0 4 -5
-4 -10 -13 -8 -13 -13 -2 -31 8 -11 9 -18 3 -15 -7 4 -9 -32 -8 -109 1 -68 6
-115 12 -115 6 0 6 -3 0 -8 -14 -10 -15 -152 -1 -152 8 0 8 -3 1 -8 -6 -4 -11
-16 -11 -27 0 -11 5 -23 11 -27 7 -5 7 -8 0 -8 -6 0 -11 -11 -11 -25 0 -14 5
-25 11 -25 5 0 3 -5 -5 -10 -13 -8 -13 -13 -2 -31 8 -12 9 -18 2 -14 -7 5 -10
-13 -8 -59 1 -37 7 -66 13 -66 7 0 7 -3 0 -8 -14 -10 -15 -52 -1 -52 6 0 4 -5
-4 -10 -13 -8 -13 -13 -2 -31 8 -12 9 -18 2 -14 -7 5 -10 -13 -8 -59 1 -37 7
-66 13 -66 7 0 7 -3 0 -8 -14 -10 -15 -52 -1 -52 6 0 4 -5 -4 -10 -13 -8 -13
-13 -2 -31 8 -11 9 -19 4 -15 -5 3 -9 -26 -8 -69 0 -44 5 -75 11 -75 7 0 7 -3
0 -8 -14 -9 -14 -145 -1 -154 7 -5 6 -8 -3 -8 -11 0 -11 -3 0 -17 10 -12 10
-15 1 -9 -9 6 -12 -6 -10 -48 2 -31 7 -56 13 -56 7 0 7 -3 0 -8 -14 -10 -15
-52 -1 -52 6 0 4 -5 -4 -10 -13 -8 -13 -13 -2 -31 8 -11 9 -18 3 -14 -8 4 -10
-26 -9 -99 1 -66 6 -106 12 -106 7 0 8 -3 1 -8 -14 -10 -15 -52 -1 -52 6 0 4
-5 -4 -10 -13 -8 -13 -13 -2 -31 8 -11 9 -18 3 -15 -7 4 -9 -32 -8 -109 1 -68
6 -115 12 -115 6 0 6 -3 0 -8 -14 -10 -15 -152 -1 -152 8 0 8 -3 1 -8 -14 -9
-14 -45 0 -54 7 -5 7 -8 0 -8 -6 0 -11 -11 -11 -25 0 -14 5 -25 11 -25 5 0 3
-5 -5 -10 -13 -8 -13 -13 -2 -31 8 -12 9 -18 2 -14 -7 5 -10 -13 -8 -59 1 -37
7 -66 13 -66 7 0 7 -3 0 -8 -14 -9 -14 -45 0 -54 6 -5 6 -8 0 -8 -6 0 -10 -26
-11 -59 0 -39 3 -58 11 -55 6 3 11 -4 11 -15 0 -16 -3 -18 -16 -8 -12 9 -12 8
1 -8 9 -11 15 -30 14 -42 -1 -13 2 -23 7 -23 5 0 6 -5 3 -10 -3 -6 -1 -10 5
-10 6 0 9 -4 6 -9 -7 -10 25 -104 37 -109 4 -2 7 -8 7 -13 0 -6 -5 -7 -11 -3
-7 4 0 -10 14 -31 14 -21 24 -42 21 -47 -3 -4 0 -8 5 -8 6 0 11 -5 11 -12 0
-6 18 -35 40 -64 22 -29 40 -56 40 -59 0 -3 12 -17 26 -30 15 -14 23 -25 19
-25 -4 0 5 -10 20 -22 16 -12 43 -37 61 -55 18 -17 35 -29 38 -26 3 4 6 1 6
-4 0 -6 20 -24 45 -40 25 -15 45 -31 45 -34 0 -3 16 -11 35 -19 19 -8 35 -17
35 -22 0 -4 6 -8 14 -8 7 0 19 -7 26 -15 8 -10 17 -12 24 -6 12 10 50 -11 40
-22 -3 -3 3 -3 15 0 13 3 21 1 21 -7 0 -6 6 -10 13 -7 6 2 24 -2 38 -9 14 -7
45 -15 70 -17 26 -3 43 -9 41 -16 -2 -9 3 -9 17 -2 10 6 21 8 24 5 3 -3 19 -6
36 -6 19 -1 28 -5 24 -12 -4 -6 1 -5 10 3 10 7 17 9 17 3 0 -11 18 -11 37 1 6
4 14 3 18 -3 9 -15 3252 -13 3259 3 3 9 5 9 5 0 1 -7 6 -13 12 -13 5 0 8 3 6
8 -3 4 6 8 19 8 13 1 36 5 50 8 19 5 24 4 18 -6 -6 -10 -4 -10 9 0 9 8 31 16
49 19 18 3 41 9 50 14 9 5 23 9 31 9 8 0 31 7 51 15 20 8 39 15 42 14 4 0 11
5 15 13 7 10 9 10 9 -2 1 -13 2 -13 13 1 16 21 55 41 66 35 5 -3 11 1 15 9 3
8 12 15 20 15 8 0 16 3 18 7 5 12 66 53 78 53 6 0 8 5 5 10 -3 6 -2 10 4 10
14 0 151 136 151 150 0 5 7 10 15 10 8 0 15 6 15 14 0 7 11 25 25 40 13 14 21
26 18 26 -3 0 2 9 12 20 10 11 14 20 9 20 -5 0 -4 4 1 8 16 12 45 69 38 76 -3
3 -1 6 6 6 7 0 9 5 6 10 -3 6 1 13 9 16 9 3 14 10 11 15 -3 4 1 25 10 45 8 20
15 45 15 54 0 10 6 21 13 23 9 4 8 6 -2 6 -11 1 -11 4 0 18 8 9 13 18 12 20
-2 1 -3 10 -3 19 0 9 5 12 13 8 8 -5 8 -2 -2 9 -11 14 -11 20 0 34 11 13 11
17 2 20 -7 3 -13 9 -13 14 0 6 6 7 13 3 7 -5 6 0 -3 11 -8 10 -10 16 -3 12 13
-8 13 29 0 50 -4 6 -3 15 3 18 8 5 7 12 -2 23 -10 13 -10 14 0 8 10 -6 12 1 9
26 -2 19 -7 40 -12 47 -5 10 -4 12 3 7 8 -5 11 5 10 28 -1 22 -5 33 -12 29 -6
-3 -5 0 2 8 15 16 16 33 0 23 -7 -5 -8 -3 -2 7 5 8 10 25 11 39 3 20 1 22 -7
10 -5 -8 -10 -10 -10 -4 0 6 3 14 7 18 4 4 9 19 10 34 3 21 1 24 -7 12 -5 -8
-10 -10 -10 -4 0 6 3 14 7 18 4 4 9 19 10 34 3 21 1 24 -7 12 -5 -8 -10 -10
-10 -4 0 6 3 14 7 18 11 11 14 48 3 41 -5 -3 -10 -1 -10 4 0 6 5 11 10 11 12
0 9 38 -4 59 -6 10 -5 12 3 7 13 -9 11 50 -4 73 -5 10 -4 12 4 7 13 -9 11 50
-4 73 -5 10 -4 12 4 7 13 -9 11 50 -4 73 -5 10 -4 12 3 7 8 -5 11 5 10 28 -1
22 -5 33 -12 29 -6 -3 -5 0 2 8 15 16 16 33 0 23 -7 -5 -8 -3 -2 7 5 8 10 25
11 39 3 20 1 22 -7 10 -5 -8 -10 -10 -10 -4 0 6 3 14 7 18 4 4 9 19 10 34 3
21 1 24 -7 12 -5 -8 -10 -10 -10 -4 0 6 3 14 7 18 4 4 9 19 10 34 3 21 1 24
-7 12 -5 -8 -10 -10 -10 -4 0 6 3 14 7 18 11 11 14 48 3 41 -5 -3 -10 -1 -10
4 0 6 5 11 10 11 12 0 9 38 -4 59 -6 10 -5 12 3 7 13 -9 11 50 -4 73 -5 10 -4
12 4 7 13 -9 11 50 -4 73 -5 10 -4 12 4 7 13 -9 11 50 -4 73 -5 10 -4 12 3 7
8 -5 11 5 10 28 -1 22 -5 33 -12 29 -6 -3 -5 0 2 8 15 16 16 33 0 23 -7 -5 -8
-3 -2 7 5 8 10 25 11 39 3 20 1 22 -7 10 -5 -8 -10 -10 -10 -4 0 6 3 14 7 18
4 4 9 19 10 34 3 21 1 24 -7 12 -5 -8 -10 -10 -10 -4 0 6 3 14 7 18 4 4 9 19
10 34 3 21 1 24 -7 12 -5 -8 -10 -10 -10 -4 0 6 3 14 7 18 11 11 14 48 3 41
-5 -3 -10 -1 -10 4 0 6 5 11 10 11 12 0 9 38 -4 59 -6 10 -5 12 3 7 13 -9 11
50 -4 73 -5 10 -4 12 4 7 13 -9 11 50 -4 73 -5 10 -4 12 4 7 13 -9 11 50 -4
73 -5 10 -4 12 3 7 8 -5 11 5 10 28 -1 22 -5 33 -12 29 -6 -3 -5 0 2 8 15 16
16 33 0 23 -7 -5 -8 -3 -2 7 5 8 10 25 11 39 3 20 1 22 -7 10 -5 -8 -10 -10
-10 -4 0 6 3 14 7 18 4 4 9 19 10 34 3 21 1 24 -7 12 -5 -8 -10 -10 -10 -4 0
6 3 14 7 18 4 4 9 19 10 34 3 21 1 24 -7 12 -5 -8 -10 -10 -10 -4 0 6 3 14 7
18 11 11 14 48 3 41 -5 -3 -10 -1 -10 4 0 6 5 11 10 11 12 0 9 38 -4 59 -6 10
-5 12 3 7 13 -9 11 50 -4 73 -5 10 -4 12 4 7 13 -9 11 50 -4 73 -5 10 -4 12 4
7 13 -9 11 50 -4 73 -5 10 -4 12 3 7 8 -5 11 5 10 28 -1 22 -5 33 -12 29 -6
-3 -5 0 2 8 15 16 16 33 0 23 -7 -5 -8 -3 -2 7 5 8 10 25 11 39 3 20 1 22 -7
10 -5 -8 -10 -10 -10 -4 0 6 3 14 7 18 4 4 9 19 10 34 3 21 1 24 -7 12 -5 -8
-10 -10 -10 -4 0 6 3 14 7 17 3 4 8 19 9 33 2 20 -1 24 -14 19 -14 -5 -14 -4
1 13 12 13 14 21 6 29 -7 7 -12 31 -13 54 -1 23 -7 44 -13 46 -6 2 -9 13 -6
24 3 10 -1 26 -8 35 -8 9 -14 22 -15 28 -2 31 -18 76 -25 76 -5 0 -9 7 -9 15
0 8 -13 37 -30 63 -16 27 -30 55 -30 61 0 7 -4 9 -10 6 -5 -3 -10 1 -10 9 0 9
-4 16 -10 16 -5 0 -10 5 -10 10 0 6 -10 21 -23 34 -13 13 -32 34 -43 47 -36
45 -126 119 -137 112 -6 -4 -7 -1 -3 6 5 8 0 14 -13 18 -12 3 -21 9 -21 14 0
5 -7 9 -15 9 -8 0 -15 5 -15 10 0 6 -10 10 -22 10 -12 0 -18 3 -15 6 12 13
-167 94 -206 94 -9 0 -17 5 -17 11 0 5 -4 8 -9 4 -5 -3 -12 -1 -16 4 -3 6 -12
8 -20 5 -8 -3 -20 -2 -27 2 -7 4 -28 9 -48 11 -55 6 -64 8 -79 17 -11 7 -12 6
-6 -5 7 -12 6 -12 -7 -1 -13 10 -17 10 -21 0 -4 -9 -6 -10 -6 -1 -1 17 -3276
19 -3286 3 -5 -8 -11 -7 -21 1 -10 8 -18 8 -27 0 -10 -8 -17 -7 -25 1 -9 9
-12 9 -12 1z m170 -142 c0 12 2 12 9 1 4 -8 12 -14 16 -14 4 0 12 6 16 14 5 7
9 8 9 2 0 -14 30 -14 30 0 0 6 4 5 9 -2 4 -8 12 -14 16 -14 4 0 12 6 16 14 6
8 9 9 9 1 0 -13 18 -12 39 1 10 6 12 5 7 -2 -9 -15 36 -12 46 3 5 6 8 6 8 -2
0 -13 38 -12 59 2 10 5 12 4 7 -3 -9 -15 36 -12 46 3 5 6 8 6 8 -2 0 -13 38
-12 59 2 10 6 12 4 7 -4 -10 -15 25 -11 37 4 4 7 10 6 15 -1 8 -13 40 -12 61
1 9 5 12 4 8 -2 -4 -5 6 -10 23 -10 18 0 27 4 23 11 -3 6 0 5 7 -1 10 -9 17
-10 27 -2 9 8 13 8 13 1 0 -12 39 -10 59 3 9 5 12 4 7 -3 -4 -7 1 -10 14 -9
11 1 20 4 20 7 0 4 7 7 15 7 8 0 12 -4 9 -9 -8 -12 10 -10 24 4 9 9 12 9 12 1
0 -13 38 -12 59 2 9 5 12 4 8 -2 -4 -5 6 -10 23 -10 18 0 27 4 23 11 -3 6 0 5
7 -1 10 -9 17 -10 27 -2 9 8 13 8 13 1 0 -12 39 -10 59 3 9 5 12 4 7 -3 -4 -7
1 -10 14 -9 11 1 20 4 20 7 0 4 7 7 15 7 8 0 12 -4 10 -8 -3 -4 6 -6 20 -5 14
0 25 6 25 11 0 6 4 4 9 -3 4 -8 12 -14 16 -14 4 0 12 6 16 14 5 7 9 8 9 2 0
-6 7 -11 15 -11 8 0 15 5 15 11 0 6 4 5 9 -2 4 -8 12 -14 16 -14 4 0 12 6 16
14 6 8 9 9 9 1 0 -13 18 -12 39 1 10 6 12 5 7 -2 -9 -15 36 -12 46 3 5 6 8 6
8 -2 0 -13 38 -12 59 2 10 5 12 4 7 -3 -9 -15 36 -12 46 3 5 6 8 6 8 -2 0 -13
38 -12 59 2 9 5 12 4 7 -3 -4 -7 1 -10 14 -9 11 1 20 5 20 10 0 5 7 4 15 -3
12 -10 15 -10 15 1 0 12 2 12 9 1 4 -8 12 -14 16 -14 4 0 12 6 16 14 5 7 9 8
9 2 0 -14 30 -14 30 0 0 6 4 5 9 -2 4 -8 12 -14 16 -14 4 0 12 6 16 14 5 7 9
8 9 2 0 -14 30 -14 30 0 0 6 4 5 9 -2 11 -17 21 -17 32 0 5 7 9 8 9 2 0 -14
30 -14 30 0 0 6 4 5 9 -2 4 -8 12 -14 16 -14 4 0 12 6 16 14 6 8 9 9 9 1 0
-13 18 -12 39 1 10 6 12 5 7 -2 -9 -15 36 -12 46 3 5 6 8 6 8 -2 0 -13 38 -12
59 2 10 5 12 4 7 -3 -9 -15 36 -12 46 3 5 6 8 6 8 -2 0 -13 38 -12 59 2 9 5
12 4 7 -3 -4 -7 1 -10 14 -9 11 1 20 5 20 10 0 5 7 4 15 -3 12 -10 15 -10 15
1 0 12 2 12 9 1 11 -17 21 -17 32 0 5 7 9 8 9 2 0 -14 30 -14 30 0 0 6 4 5 9
-2 4 -8 12 -14 16 -14 4 0 12 6 16 14 7 10 9 10 9 -2 0 -13 1 -13 10 0 6 9 10
10 10 3 0 -13 38 -12 59 2 9 5 12 4 8 -2 -4 -5 6 -10 23 -10 18 0 27 4 23 11
-3 6 0 5 7 -1 10 -9 17 -10 27 -2 9 8 13 8 13 1 0 -12 39 -10 59 3 9 5 12 4 7
-3 -4 -7 1 -10 14 -9 11 1 20 4 20 7 0 4 7 7 15 7 8 0 12 -4 9 -9 -8 -12 10
-10 24 4 9 9 12 9 12 1 0 -13 38 -12 59 2 9 5 12 4 8 -2 -4 -5 6 -10 23 -10
18 0 27 4 23 11 -3 6 0 5 7 -1 10 -9 17 -10 27 -2 9 8 13 8 13 1 0 -12 39 -10
59 3 9 5 12 4 7 -3 -4 -7 1 -10 14 -9 11 1 20 4 20 7 0 4 7 7 15 7 8 0 12 -4
9 -8 -6 -10 38 -5 55 6 8 5 12 4 8 -1 -3 -5 21 -10 56 -10 106 -1 172 -7 185
-17 6 -5 12 -6 12 -2 0 4 8 1 17 -6 15 -12 16 -12 8 1 -7 12 -4 12 17 -2 19
-12 28 -14 37 -5 8 8 11 7 11 -5 0 -10 7 -15 18 -13 9 1 22 -2 28 -7 7 -5 22
-11 35 -13 12 -3 26 -10 29 -16 4 -6 11 -11 16 -11 22 -2 44 -11 44 -18 0 -4
11 -11 25 -14 16 -4 23 -11 19 -18 -4 -6 -3 -8 3 -5 12 7 135 -89 168 -131 11
-14 30 -36 43 -48 13 -13 19 -24 15 -24 -4 0 -3 -4 3 -8 6 -4 19 -20 28 -37 9
-16 27 -49 41 -73 13 -23 18 -40 12 -36 -7 3 -4 -1 7 -10 10 -8 15 -20 11 -25
-3 -6 1 -14 9 -17 9 -3 13 -10 10 -15 -3 -6 0 -17 8 -26 9 -12 9 -15 1 -9 -9
5 -11 2 -7 -8 3 -9 11 -16 17 -16 6 0 8 -3 5 -6 -4 -3 -2 -19 2 -35 5 -17 5
-31 -1 -35 -6 -4 -6 -10 0 -18 6 -7 8 -16 4 -19 -3 -4 -1 -7 7 -7 10 0 10 -4
-1 -17 -12 -15 -12 -16 1 -8 13 8 13 7 1 -8 -8 -10 -9 -17 -3 -17 6 0 10 -9 9
-20 -1 -11 -5 -20 -10 -20 -5 0 -3 -7 4 -17 16 -19 16 -23 -3 -34 -10 -7 -10
-9 0 -9 6 0 12 -5 12 -11 0 -5 -5 -7 -12 -3 -7 5 -8 3 -2 -7 13 -21 14 -39 2
-39 -6 0 -4 -7 3 -17 16 -19 16 -23 -3 -34 -10 -7 -10 -9 0 -9 6 0 12 -5 12
-11 0 -5 -5 -7 -12 -3 -7 5 -8 3 -2 -7 12 -20 14 -39 3 -39 -6 0 -7 -6 -2 -12
12 -20 11 -78 -1 -78 -6 0 -4 -5 4 -10 13 -9 13 -10 0 -10 -10 0 -11 -3 -4 -8
13 -9 14 -42 1 -42 -5 0 -3 -7 4 -17 16 -19 16 -23 -3 -34 -10 -7 -10 -9 0 -9
6 0 12 -5 12 -11 0 -5 -5 -7 -12 -3 -7 5 -8 3 -2 -7 13 -21 14 -39 2 -39 -6 0
-4 -7 3 -17 16 -19 16 -23 -3 -34 -10 -7 -10 -9 0 -9 6 0 12 -5 12 -11 0 -5
-5 -7 -12 -3 -7 5 -8 3 -2 -7 13 -21 14 -39 2 -39 -6 0 -4 -7 3 -17 16 -19 16
-23 -3 -34 -10 -7 -10 -9 0 -9 6 0 12 -5 12 -11 0 -5 -5 -7 -12 -3 -7 5 -8 3
-2 -7 13 -21 14 -39 2 -39 -6 0 -4 -7 3 -17 16 -19 16 -23 -3 -34 -10 -7 -10
-9 0 -9 6 0 12 -5 12 -11 0 -5 -5 -7 -12 -3 -7 5 -8 3 -2 -7 12 -20 14 -39 3
-39 -6 0 -7 -6 -2 -12 12 -20 11 -78 -1 -78 -6 0 -4 -5 4 -10 13 -9 13 -10 0
-10 -10 0 -11 -3 -4 -8 13 -9 14 -42 1 -42 -5 0 -3 -7 4 -17 16 -19 16 -23 -3
-34 -10 -7 -10 -9 0 -9 6 0 12 -5 12 -11 0 -5 -5 -7 -12 -3 -7 5 -8 3 -2 -7
13 -21 14 -39 2 -39 -7 0 -7 -4 0 -12 15 -19 15 -30 0 -39 -10 -7 -10 -9 0 -9
6 0 12 -5 12 -11 0 -5 -5 -7 -12 -3 -7 5 -8 3 -2 -7 13 -21 14 -39 2 -39 -7 0
-7 -4 0 -12 15 -19 15 -30 0 -39 -10 -7 -10 -9 0 -9 6 0 12 -5 12 -11 0 -5 -5
-7 -12 -3 -7 5 -8 3 -2 -7 13 -21 14 -39 2 -39 -7 0 -7 -4 0 -12 15 -19 15
-30 0 -39 -10 -7 -10 -9 0 -9 6 0 12 -5 12 -11 0 -5 -5 -7 -12 -3 -7 5 -8 3
-2 -7 12 -20 14 -39 3 -39 -6 0 -7 -6 -2 -12 12 -20 11 -78 -1 -78 -6 0 -4 -5
4 -10 13 -9 13 -10 0 -10 -10 0 -11 -3 -4 -8 13 -9 14 -42 1 -42 -6 0 -5 -5 1
-12 15 -19 15 -30 0 -39 -10 -7 -10 -9 0 -9 6 0 12 -5 12 -11 0 -5 -5 -7 -12
-3 -7 5 -8 3 -2 -7 13 -21 14 -39 2 -39 -7 0 -7 -4 0 -12 15 -19 15 -30 0 -39
-10 -7 -10 -9 0 -9 6 0 12 -5 12 -11 0 -5 -5 -7 -12 -3 -7 5 -8 3 -2 -7 13
-21 14 -39 2 -39 -7 0 -7 -4 0 -12 15 -19 15 -30 0 -39 -10 -7 -10 -9 0 -9 6
0 12 -5 12 -11 0 -5 -5 -7 -12 -3 -7 5 -8 3 -2 -7 13 -21 14 -39 2 -39 -6 0
-4 -7 3 -17 16 -19 16 -23 -3 -34 -10 -7 -10 -9 0 -9 6 0 12 -5 12 -11 0 -5
-5 -7 -12 -3 -7 5 -8 3 -2 -7 12 -20 14 -39 3 -39 -6 0 -7 -6 -2 -12 12 -20
11 -78 -1 -78 -6 0 -4 -5 4 -10 13 -9 13 -10 0 -10 -10 0 -11 -3 -4 -8 13 -9
14 -42 1 -42 -6 0 -5 -5 1 -12 15 -19 15 -30 0 -39 -10 -7 -10 -9 0 -9 6 0 12
-5 12 -11 0 -5 -5 -7 -12 -3 -7 5 -8 3 -2 -7 12 -20 14 -39 3 -39 -6 0 -7 -6
-2 -12 11 -18 10 -32 -2 -40 -6 -5 -6 -8 3 -8 6 0 12 -5 12 -11 0 -5 -5 -7
-12 -3 -7 5 -8 3 -2 -7 12 -20 14 -39 3 -39 -6 0 -7 -6 -2 -12 11 -18 10 -32
-2 -40 -6 -5 -6 -8 3 -8 6 0 12 -5 12 -11 0 -5 -5 -7 -12 -3 -7 5 -8 3 -2 -7
12 -20 14 -39 3 -39 -6 0 -7 -6 -2 -13 11 -17 10 -31 -2 -39 -6 -5 -6 -8 3 -8
6 0 12 -5 12 -11 0 -5 -5 -7 -12 -3 -7 5 -8 3 -2 -7 12 -20 14 -39 3 -39 -6 0
-7 -6 -2 -12 9 -16 13 -89 4 -84 -4 3 -7 -4 -7 -15 0 -10 4 -19 9 -19 4 0 5
-6 0 -13 -4 -6 -9 -29 -10 -51 -1 -21 -8 -45 -15 -54 -9 -11 -10 -14 -1 -9 9
6 9 -1 -1 -25 -7 -18 -12 -41 -11 -51 2 -9 -1 -15 -6 -11 -5 3 -9 -4 -9 -15 0
-12 -5 -21 -12 -21 -6 0 -8 -3 -5 -6 3 -4 1 -16 -5 -28 -7 -11 -11 -24 -10
-28 1 -5 -3 -8 -8 -8 -6 0 -10 -9 -10 -21 0 -11 -4 -17 -10 -14 -9 6 -14 -8
-11 -27 0 -5 -4 -8 -9 -8 -6 0 -10 -7 -10 -16 0 -8 -4 -13 -9 -9 -5 3 -12 -4
-16 -15 -3 -11 -11 -20 -17 -20 -6 0 -9 -3 -6 -6 6 -6 -75 -94 -86 -94 -3 0
-14 -8 -24 -17 -30 -28 -67 -58 -72 -58 -3 0 -19 -10 -37 -23 -17 -12 -35 -22
-41 -22 -5 0 -20 -8 -33 -18 -13 -10 -31 -18 -39 -17 -8 0 -18 -3 -21 -8 -3
-4 -16 -9 -27 -10 -12 -1 -22 -5 -22 -9 0 -4 -3 -7 -7 -6 -15 3 -68 -15 -75
-26 -5 -8 -8 -7 -8 1 0 9 -7 10 -27 2 -14 -5 -32 -8 -39 -5 -8 3 -16 1 -19 -4
-3 -4 -13 -7 -23 -5 -9 1 -25 -2 -36 -7 -13 -7 -16 -7 -12 1 9 14 0 14 -26 0
-15 -8 -19 -8 -14 0 9 14 -36 10 -46 -4 -5 -6 -8 -6 -8 2 0 13 -18 12 -39 -1
-9 -6 -12 -5 -7 2 4 7 -1 10 -14 9 -11 -1 -20 -5 -20 -10 0 -5 -7 -4 -15 3
-12 10 -15 10 -16 -1 0 -11 -2 -11 -6 -1 -4 10 -8 10 -21 0 -12 -10 -14 -10
-8 -1 9 16 1 16 -26 2 -13 -7 -18 -7 -14 -1 7 12 -33 10 -53 -3 -9 -5 -12 -4
-7 3 4 7 -1 10 -14 9 -11 -1 -20 -6 -20 -11 0 -6 -5 -5 -12 2 -9 9 -15 9 -27
-1 -11 -9 -13 -9 -8 0 5 8 0 11 -13 10 -11 -1 -20 -5 -20 -10 0 -5 -7 -4 -15
3 -12 10 -15 10 -15 -1 0 -12 -2 -12 -9 -1 -12 19 -15 19 -36 2 -11 -8 -16
-10 -12 -3 5 8 0 11 -13 10 -11 -1 -20 -5 -20 -10 0 -5 -7 -4 -15 3 -12 10
-15 10 -15 -1 0 -12 -2 -12 -9 -1 -4 8 -12 14 -16 14 -4 0 -12 -6 -16 -14 -6
-8 -9 -9 -9 -1 0 13 -18 12 -39 -1 -9 -6 -12 -5 -7 2 4 7 -1 10 -14 9 -11 -1
-20 -5 -20 -10 0 -5 -7 -4 -15 3 -12 10 -15 10 -15 -1 0 -12 -2 -12 -9 -1 -12
19 -15 19 -36 2 -11 -8 -16 -10 -12 -3 5 8 0 11 -13 10 -11 -1 -20 -6 -20 -11
0 -6 -5 -5 -12 2 -9 9 -15 9 -27 -1 -11 -9 -13 -9 -8 0 5 8 0 11 -13 10 -11
-1 -20 -4 -20 -7 0 -4 -7 -7 -15 -7 -8 0 -12 4 -9 9 7 11 -3 10 -28 -3 -15 -8
-19 -8 -14 0 9 14 -36 10 -46 -4 -5 -6 -8 -6 -8 2 0 13 -18 12 -39 -1 -9 -6
-12 -5 -7 2 4 7 -1 10 -14 9 -11 -1 -20 -5 -20 -10 0 -5 -7 -4 -15 3 -12 10
-15 10 -16 -1 0 -11 -2 -11 -6 -1 -4 10 -8 10 -21 0 -12 -10 -14 -10 -8 0 9
15 1 15 -26 1 -13 -7 -18 -7 -14 -1 7 12 -33 10 -53 -3 -9 -5 -12 -4 -7 3 4 7
-1 10 -14 9 -11 -1 -20 -6 -20 -11 0 -6 -5 -5 -12 2 -9 9 -15 9 -27 -1 -11 -9
-13 -9 -8 0 5 8 0 11 -13 10 -11 -1 -20 -5 -20 -10 0 -5 -7 -4 -15 3 -12 10
-15 10 -15 -1 0 -12 -2 -12 -9 -1 -12 19 -15 19 -36 2 -11 -8 -16 -10 -12 -3
5 8 0 11 -13 10 -11 -1 -20 -5 -20 -10 0 -5 -7 -4 -15 3 -12 10 -15 10 -15 -1
0 -12 -2 -12 -9 -1 -11 17 -21 17 -32 0 -6 -8 -9 -9 -9 -1 0 13 -18 12 -39 -1
-9 -6 -12 -5 -7 2 4 7 -1 10 -14 9 -11 -1 -20 -5 -20 -10 0 -5 -7 -4 -15 3
-12 10 -15 10 -15 -1 0 -12 -2 -12 -9 -1 -12 19 -15 19 -36 2 -11 -8 -16 -10
-12 -3 5 8 0 11 -13 10 -11 -1 -20 -6 -20 -11 0 -6 -5 -5 -12 2 -9 9 -15 9
-27 -1 -11 -9 -13 -9 -8 0 5 8 0 11 -13 10 -11 -1 -20 -4 -20 -7 0 -4 -7 -7
-15 -7 -8 0 -12 4 -9 9 7 11 -3 10 -28 -3 -15 -8 -19 -8 -14 0 9 14 -36 10
-46 -4 -5 -6 -8 -6 -8 2 0 13 -18 12 -39 -1 -9 -6 -12 -5 -7 2 4 7 -1 10 -14
9 -11 -1 -20 -5 -20 -10 0 -5 -7 -4 -15 3 -12 10 -15 10 -16 -1 0 -11 -2 -11
-6 -1 -4 10 -8 10 -21 0 -12 -10 -14 -10 -8 -1 9 16 1 16 -26 2 -13 -7 -18 -7
-14 -1 7 12 -33 10 -53 -3 -9 -5 -12 -4 -7 3 4 7 -1 10 -14 9 -11 -1 -20 -6
-20 -11 0 -6 -5 -5 -12 2 -9 9 -15 9 -27 -1 -11 -9 -13 -9 -8 0 5 8 0 11 -13
10 -11 -1 -20 -5 -20 -10 0 -5 -7 -4 -15 3 -12 10 -15 10 -15 -1 0 -12 -2 -12
-9 -1 -9 16 -20 15 -40 -1 -11 -9 -13 -9 -8 0 5 8 0 11 -13 10 -11 -1 -20 -5
-20 -10 0 -5 -7 -4 -15 3 -12 10 -15 10 -15 -1 0 -12 -2 -12 -9 -1 -11 17 -21
17 -32 0 -6 -8 -9 -9 -9 -1 0 13 -18 12 -39 -1 -9 -6 -12 -5 -7 2 4 7 -1 10
-14 9 -11 -1 -20 -5 -20 -10 0 -5 -7 -4 -15 3 -12 10 -15 10 -15 -1 0 -12 -2
-12 -9 -1 -9 16 -20 15 -40 -1 -11 -9 -13 -9 -8 0 5 8 0 11 -13 10 -11 -1 -20
-6 -20 -11 0 -6 -5 -5 -12 2 -9 9 -15 9 -27 -1 -11 -9 -13 -9 -8 0 5 8 0 11
-13 10 -11 -1 -20 -4 -20 -7 0 -4 -7 -7 -15 -7 -8 0 -12 4 -9 9 7 11 -3 10
-28 -3 -15 -8 -19 -8 -14 0 9 14 -36 10 -46 -4 -5 -6 -8 -6 -8 2 0 13 -18 12
-39 -1 -9 -6 -12 -5 -7 2 4 7 -1 10 -14 9 -11 -1 -20 -5 -20 -10 0 -5 -7 -4
-15 3 -12 10 -15 10 -16 -1 0 -11 -2 -11 -6 -1 -4 10 -8 10 -21 0 -12 -10 -14
-10 -8 0 9 15 1 15 -26 1 -15 -8 -19 -8 -13 0 7 12 -19 10 -60 -4 -15 -5 -17
-5 -6 3 11 8 4 11 -30 11 -70 1 -83 3 -98 15 -12 9 -13 8 -6 -3 6 -11 5 -12
-6 -5 -15 9 -29 12 -66 16 -13 1 -23 5 -23 9 0 3 -6 6 -12 7 -21 1 -42 7 -53
13 -5 4 -23 9 -38 13 -17 4 -25 11 -21 18 5 7 3 8 -5 4 -7 -5 -21 0 -33 11
-11 10 -23 17 -27 17 -11 -2 -51 19 -51 27 0 4 -8 10 -17 13 -10 3 -32 19 -50
36 -18 16 -35 30 -38 30 -3 0 -23 19 -45 43 -22 23 -50 53 -62 66 -13 13 -17
20 -9 16 9 -5 12 -4 7 3 -4 7 -14 12 -23 12 -9 0 -13 6 -9 15 3 8 1 15 -4 15
-6 0 -10 7 -10 15 0 8 -4 15 -10 15 -5 0 -10 6 -10 13 0 6 -9 23 -20 37 -11
14 -20 35 -20 48 0 12 -5 22 -11 22 -5 0 -7 5 -4 10 3 6 0 10 -7 10 -9 0 -9 3
2 10 12 8 12 10 1 10 -8 0 -11 3 -8 7 4 3 2 12 -4 19 -6 7 -12 34 -14 61 -2
26 -5 48 -6 48 -1 0 -3 17 -4 38 -1 21 -5 40 -8 43 -3 4 -2 17 4 31 6 16 6 22
-1 18 -14 -9 -12 9 2 23 9 9 9 12 0 12 -7 0 -12 5 -12 11 0 5 5 7 12 3 7 -5 8
-3 3 7 -12 19 -12 63 0 71 6 5 5 8 -3 8 -10 0 -10 5 -2 20 7 14 7 20 0 20 -5
0 -10 5 -10 11 0 5 6 7 13 3 9 -5 9 -4 0 6 -9 10 -10 17 -2 27 8 9 8 13 0 13
-6 0 -11 5 -11 11 0 5 6 7 12 3 8 -5 7 0 -2 11 -14 17 -13 18 5 12 18 -6 19
-6 3 6 -13 11 -15 16 -6 25 7 7 8 12 2 12 -13 0 -12 43 1 52 6 5 5 8 -3 8 -9
0 -10 5 -3 19 6 10 8 21 4 24 -8 9 -8 71 1 85 4 7 2 12 -3 12 -6 0 -11 5 -11
11 0 5 5 7 12 3 7 -5 8 -3 3 7 -12 19 -12 63 0 71 6 5 5 8 -3 8 -9 0 -10 5 -3
19 6 10 8 21 4 24 -8 9 -8 71 1 85 4 7 2 12 -3 12 -6 0 -11 5 -11 11 0 5 4 8
9 4 5 -3 13 0 17 6 4 7 3 9 -4 5 -6 -3 -13 -2 -16 3 -4 5 -2 12 3 16 6 3 7 13
4 22 -9 23 -8 66 1 81 4 7 2 12 -3 12 -6 0 -11 5 -11 11 0 5 4 8 9 4 5 -3 13
0 17 6 4 7 3 9 -4 5 -6 -3 -13 -2 -16 3 -4 5 -2 12 3 16 6 3 7 13 4 22 -9 23
-8 66 1 81 4 7 2 12 -3 12 -6 0 -11 5 -11 11 0 5 4 8 9 4 5 -3 13 0 17 6 4 7
3 9 -4 5 -6 -3 -13 -2 -16 3 -4 5 -2 12 3 16 6 3 7 13 4 22 -9 23 -8 66 1 81
4 7 2 12 -3 12 -6 0 -11 5 -11 11 0 5 4 8 9 4 5 -3 13 -1 16 5 4 6 1 9 -6 8
-15 -4 -19 54 -4 64 6 5 5 8 -3 8 -9 0 -10 5 -3 19 6 10 8 21 4 24 -8 9 -8 71
1 85 4 7 2 12 -3 12 -6 0 -11 5 -11 11 0 5 5 7 12 3 7 -5 8 -3 3 7 -12 19 -12
63 0 71 6 5 5 8 -3 8 -10 0 -10 5 -2 20 7 14 7 20 0 20 -5 0 -10 5 -10 11 0 5
6 7 13 3 9 -5 9 -4 0 6 -9 10 -10 17 -2 27 8 9 8 13 0 13 -6 0 -11 5 -11 11 0
5 6 7 13 3 7 -5 6 0 -3 11 -14 17 -13 18 5 12 18 -6 19 -6 3 6 -13 11 -15 16
-6 25 7 7 8 12 2 12 -13 0 -12 43 1 52 6 5 5 8 -3 8 -9 0 -10 5 -3 19 6 10 8
21 4 24 -8 9 -8 71 1 85 4 7 2 12 -3 12 -6 0 -11 5 -11 11 0 5 5 7 12 3 7 -5
8 -3 3 7 -12 19 -12 63 0 71 6 5 5 8 -3 8 -10 0 -10 5 -2 20 7 14 7 20 0 20
-5 0 -10 5 -10 11 0 5 6 7 13 3 9 -5 9 -4 0 6 -9 10 -10 17 -2 27 8 9 8 13 0
13 -6 0 -11 5 -11 11 0 5 6 7 13 3 7 -5 6 0 -3 11 -14 17 -13 18 5 12 18 -6
19 -6 3 6 -13 11 -15 16 -6 25 7 7 8 12 2 12 -13 0 -12 43 1 52 6 5 5 8 -3 8
-9 0 -10 5 -3 19 6 10 8 21 4 24 -8 9 -8 71 1 85 4 7 2 12 -3 12 -6 0 -11 5
-11 11 0 5 5 7 12 3 7 -5 8 -3 3 7 -12 19 -12 63 0 71 6 5 5 8 -3 8 -9 0 -10
5 -3 19 6 10 8 21 4 24 -8 9 -8 71 1 85 4 7 2 12 -3 12 -6 0 -11 5 -11 11 0 5
4 8 9 4 5 -3 13 0 17 6 4 7 3 9 -4 5 -6 -3 -13 -2 -16 3 -4 5 -2 12 3 16 6 3
7 13 4 22 -9 23 -8 66 1 81 4 7 2 12 -3 12 -6 0 -11 5 -11 11 0 5 4 8 9 4 5
-3 13 -1 16 5 4 6 1 9 -5 8 -7 -2 -14 5 -15 15 -2 9 2 17 8 17 7 0 5 5 -3 10
-11 7 -11 10 -2 10 10 0 10 5 2 20 -9 17 -8 20 7 20 10 0 14 3 8 8 -12 8 -13
41 -4 57 4 6 5 18 4 28 -2 9 0 17 4 17 4 0 8 7 9 15 1 8 3 22 4 30 1 8 6 15
12 15 6 0 4 5 -4 10 -8 5 -10 10 -3 10 12 0 37 57 34 79 -1 7 2 10 8 6 10 -5
15 7 12 28 0 4 2 7 7 7 4 0 16 16 26 35 11 19 24 35 29 35 6 0 8 3 4 6 -3 3 2
14 11 23 10 10 24 27 32 39 8 12 19 22 25 22 5 0 19 13 30 29 11 17 21 28 24
26 2 -3 12 5 22 17 11 11 19 18 19 15 0 -4 8 1 18 11 24 22 115 76 125 74 4
-1 7 2 7 8 0 5 3 9 8 8 8 -2 64 23 72 32 3 3 12 6 20 6 8 0 28 6 44 13 16 6
37 10 45 9 9 -2 21 3 28 12 10 12 12 12 13 1 0 -11 3 -11 15 -1 8 6 18 9 23 7
4 -3 14 -2 22 3 8 5 22 5 32 -1 10 -5 18 -6 18 -1 0 5 16 8 35 7 19 -2 35 2
35 7 0 6 6 5 15 -2 12 -10 15 -10 15 1z m-1055 -1211 c3 -5 1 -10 -4 -10 -6 0
-11 5 -11 10 0 6 2 10 4 10 3 0 8 -4 11 -10z m0 -160 c3 -5 1 -10 -4 -10 -6 0
-11 5 -11 10 0 6 2 10 4 10 3 0 8 -4 11 -10z m0 -800 c3 -5 1 -10 -4 -10 -6 0
-11 5 -11 10 0 6 2 10 4 10 3 0 8 -4 11 -10z m0 -160 c3 -5 1 -10 -4 -10 -6 0
-11 5 -11 10 0 6 2 10 4 10 3 0 8 -4 11 -10z m0 -800 c3 -5 1 -10 -4 -10 -6 0
-11 5 -11 10 0 6 2 10 4 10 3 0 8 -4 11 -10z m0 -160 c3 -5 1 -10 -4 -10 -6 0
-11 5 -11 10 0 6 2 10 4 10 3 0 8 -4 11 -10z m0 -490 c3 -5 1 -10 -4 -10 -6 0
-11 5 -11 10 0 6 2 10 4 10 3 0 8 -4 11 -10z"/>
<path d="M2265 4751 c6 -11 2 -13 -19 -7 -18 4 -26 2 -26 -6 0 -8 -3 -9 -8 -3
-20 28 -71 2 -59 -30 4 -8 2 -17 -2 -19 -5 -3 -5 -24 -1 -46 5 -27 4 -40 -4
-40 -6 0 -4 -5 4 -10 11 -7 11 -10 2 -10 -10 0 -10 -5 -2 -20 8 -15 8 -20 -1
-20 -8 0 -7 -5 2 -17 12 -15 12 -16 -1 -8 -13 7 -13 6 -2 -7 10 -13 10 -17 0
-21 -10 -4 -10 -8 2 -16 13 -9 12 -11 -5 -12 -15 0 -17 -2 -5 -7 11 -5 14 -16
10 -37 l-5 -30 -525 0 -525 -1 -6 -37 c-3 -22 -1 -38 5 -42 8 -3 7 -7 -1 -11
-8 -3 -9 -15 -3 -35 5 -18 5 -29 -1 -29 -6 0 -5 -8 1 -20 6 -11 7 -20 3 -21
-4 0 1 -4 12 -8 11 -5 25 -6 30 -3 16 10 35 11 35 2 0 -5 14 -5 30 0 19 5 30
5 30 -1 0 -6 8 -5 20 1 14 8 20 8 20 0 0 -8 6 -8 20 0 14 8 20 8 20 0 0 -8 6
-8 20 0 15 8 20 8 20 -2 0 -9 3 -9 10 2 5 8 10 10 10 4 0 -12 41 -11 59 1 6 3
11 1 11 -5 0 -6 5 -8 13 -3 18 11 37 13 37 3 0 -5 14 -5 30 0 19 5 30 5 30 -1
0 -6 7 -6 19 1 14 7 20 7 23 -2 3 -8 10 -8 26 1 17 9 22 9 22 0 0 -9 3 -9 14
0 10 8 16 9 21 1 4 -7 12 -7 26 0 13 8 19 7 19 0 0 -6 5 -8 12 -4 17 11 58 11
58 1 0 -4 9 -3 20 3 15 8 20 8 20 -2 0 -9 3 -9 10 2 5 8 10 10 10 4 0 -12 41
-11 59 1 6 3 11 1 11 -5 0 -6 5 -8 13 -3 18 11 37 13 37 3 0 -5 14 -5 30 0 19
5 30 5 30 -1 0 -6 7 -6 19 1 14 7 20 7 23 -2 3 -8 10 -8 27 2 19 9 25 9 31 0
4 -7 12 -10 18 -6 6 4 7 -6 2 -29 -5 -24 -4 -35 4 -35 6 0 4 -5 -4 -10 -8 -5
-10 -10 -5 -10 6 0 10 -11 10 -25 0 -14 -4 -25 -10 -25 -5 0 -3 -5 5 -10 11
-7 11 -10 2 -10 -10 0 -10 -5 -2 -20 9 -16 8 -20 -7 -21 -16 0 -16 -1 2 -9 11
-5 15 -9 9 -9 -15 -1 -5 -51 10 -51 150 -5 293 -3 289 3 -2 4 2 7 9 7 9 0 9 3
-2 10 -8 5 -10 10 -4 10 12 0 12 29 -1 49 -5 10 -4 12 3 7 7 -4 12 -1 12 9 0
9 -5 13 -11 9 -8 -5 -8 -1 0 14 8 15 8 22 -2 25 -9 4 -8 6 2 6 11 1 11 4 1 16
-7 8 -8 15 -3 15 5 0 9 9 10 20 1 12 -3 18 -9 14 -6 -4 -6 1 1 14 8 15 8 21
-1 24 -7 3 2 10 20 16 20 7 32 7 32 1 0 -6 7 -6 19 1 14 7 20 7 23 -2 3 -8 10
-8 26 1 17 9 22 9 22 0 0 -9 3 -9 14 0 10 8 16 9 21 1 4 -7 12 -7 26 0 13 8
19 7 19 0 0 -6 5 -8 12 -4 17 11 58 11 58 1 0 -4 9 -3 20 3 15 8 20 8 20 -2 0
-9 3 -9 10 2 5 8 10 10 10 4 0 -12 41 -11 59 1 6 3 11 1 11 -5 0 -6 5 -8 13
-3 18 11 37 13 37 3 0 -5 14 -5 30 0 19 5 30 5 30 -1 0 -6 7 -6 19 1 14 7 20
7 23 -2 3 -8 10 -8 26 1 17 9 22 9 22 0 0 -9 3 -9 14 0 10 8 16 9 21 1 4 -7
12 -7 26 0 14 8 19 7 19 -1 0 -9 3 -9 14 0 10 8 16 9 21 1 4 -7 12 -7 26 0 14
8 19 7 19 -1 0 -9 3 -9 14 0 10 8 16 9 21 1 4 -7 12 -7 26 0 13 8 19 7 19 0 0
-6 5 -8 12 -4 17 11 58 11 58 1 0 -4 9 -3 20 3 15 8 20 8 20 -2 0 -9 3 -9 10
2 5 8 10 10 10 4 0 -12 32 -11 64 2 14 5 17 4 12 -4 -4 -7 -3 -12 1 -12 10 0
10 -140 0 -157 -4 -6 -3 -14 2 -17 5 -4 8 -18 5 -32 -10 -53 1 -56 156 -56 86
1 147 5 154 12 7 7 6 10 -4 10 -13 0 -13 2 0 10 12 8 12 10 1 10 -11 0 -11 3
0 17 12 15 12 16 -1 8 -12 -7 -13 -6 -3 7 7 8 10 18 6 22 -11 11 -12 36 -1 36
7 0 6 5 -1 14 -9 11 -9 16 0 21 8 6 7 10 -2 16 -11 7 -11 9 -1 9 7 0 10 4 7
10 -11 19 -14 50 -4 55 5 4 7 11 4 16 -4 5 3 5 17 0 15 -5 31 -5 41 0 11 7 17
6 17 -1 0 -6 5 -8 13 -3 18 11 37 12 37 2 0 -6 8 -5 20 1 11 6 20 7 20 2 0
-10 42 -8 59 3 6 3 11 1 11 -5 0 -6 5 -8 13 -3 18 11 37 12 37 2 0 -6 8 -5 20
1 11 6 20 7 20 2 0 -10 42 -8 59 3 6 3 11 1 11 -5 0 -6 5 -8 13 -3 18 11 37
12 37 2 0 -6 8 -5 20 1 11 6 20 7 20 2 0 -10 42 -8 59 3 6 3 11 1 11 -5 0 -6
5 -8 13 -3 18 11 37 13 37 3 0 -5 14 -5 30 0 19 5 30 5 30 -1 0 -6 8 -5 20 1
15 8 20 8 20 -2 0 -9 3 -9 10 2 5 8 10 10 10 4 0 -12 41 -11 59 1 6 3 11 1 11
-5 0 -6 5 -8 13 -3 18 11 37 13 37 3 0 -5 14 -5 30 0 19 5 30 5 30 -1 0 -6 7
-6 19 1 14 7 20 7 23 -2 3 -8 10 -8 27 2 13 7 26 8 30 3 3 -5 12 -8 19 -7 6 1
20 2 30 3 16 1 18 9 17 64 0 34 3 68 8 75 6 7 6 12 0 12 -6 0 -10 12 -9 27 l1
27 -531 1 c-399 0 -534 3 -543 12 -7 8 -7 14 -1 18 7 4 7 13 0 25 -7 13 -7 21
0 25 6 4 7 12 3 18 -12 19 -12 37 -2 37 6 0 7 6 3 12 -11 18 -12 48 -2 54 4 3
5 11 1 17 -12 19 -12 37 -1 37 7 0 6 5 -1 14 -9 11 -9 16 0 21 8 6 7 10 -2 16
-12 7 -12 9 0 9 11 0 11 3 0 17 -12 15 -12 16 1 8 12 -6 13 -5 3 5 -15 16
-217 22 -247 7 -13 -6 -16 -6 -12 2 10 15 -17 14 -33 -1 -11 -11 -12 -10 -6 1
5 9 4 12 -2 8 -7 -4 -10 -50 -9 -121 2 -73 -1 -113 -7 -109 -6 4 -7 1 -2 -8 9
-14 14 -95 8 -114 -4 -12 -1051 -14 -1070 -2 -15 10 -5 39 11 30 8 -4 8 -2 -1
7 -6 7 -9 19 -6 28 5 11 2 13 -8 7 -11 -6 -12 -5 -1 6 15 16 16 33 1 23 -8 -5
-8 -1 0 14 8 15 8 22 -2 25 -9 4 -8 6 2 6 11 1 11 4 1 16 -7 8 -8 15 -3 15 5
0 9 9 10 20 1 12 -3 18 -9 14 -6 -4 -6 1 1 14 6 11 11 23 11 27 0 3 -5 3 -11
-1 -8 -5 -8 -1 0 14 14 27 14 35 -1 26 -7 -5 -8 -3 -3 7 14 22 13 48 -3 54 -9
3 -19 1 -22 -6 -6 -8 -9 -7 -12 2 -4 11 -8 12 -20 1 -13 -10 -18 -9 -28 3 -12
14 -15 14 -30 0 -13 -12 -20 -13 -25 -5 -4 6 -13 9 -20 6 -7 -2 -18 1 -25 7
-10 9 -11 9 -5 -2z"/>
<path d="M4575 3900 c-4 -6 -44 -11 -88 -11 -11 0 -15 -5 -10 -12 5 -9 3 -9
-8 0 -9 8 -20 9 -29 3 -21 -14 -32 -12 -24 3 6 9 5 9 -7 0 -8 -6 -39 -14 -69
-16 -30 -3 -63 -8 -72 -12 -12 -5 -18 -3 -18 6 0 9 -3 10 -8 4 -9 -13 -26 -16
-94 -18 -32 -1 -58 -4 -58 -8 0 -9 -42 -5 -59 5 -10 6 -12 5 -7 -2 5 -8 -6
-12 -36 -13 -49 -2 -101 -6 -108 -8 -7 -3 -164 -13 -225 -15 -27 0 -53 -5 -57
-11 -5 -6 -8 -5 -8 3 0 8 -5 10 -12 5 -23 -14 -50 -14 -42 -1 6 10 4 10 -8 0
-10 -8 -54 -13 -126 -15 -60 -1 -109 -4 -107 -7 2 -3 -8 -6 -21 -6 -15 -1 -21
2 -17 10 4 6 -1 5 -10 -3 -14 -11 -17 -11 -17 0 0 8 -5 6 -13 -6 -9 -12 -16
-14 -21 -7 -4 7 -15 8 -30 2 -15 -5 -27 -5 -35 3 -8 8 -11 7 -11 -4 0 -12 -2
-12 -10 1 -5 8 -10 10 -10 5 0 -6 -33 -10 -80 -10 -44 0 -80 -3 -80 -8 0 -4
-6 -5 -12 0 -18 11 -52 10 -60 -2 -5 -6 -11 -6 -19 2 -13 13 -42 6 -33 -9 4
-6 -3 -5 -15 1 -11 7 -21 8 -21 4 0 -4 -63 -8 -140 -8 -87 0 -140 -4 -140 -10
0 -5 -4 -4 -9 4 -6 9 -10 10 -16 2 -5 -9 -11 -9 -22 1 -19 15 -20 15 -40 -9
-8 -10 -12 -12 -8 -5 4 7 0 12 -10 12 -10 0 -13 -5 -9 -12 5 -7 3 -8 -7 -2 -8
5 -21 7 -31 6 -9 -2 -19 2 -23 8 -5 8 -11 8 -21 -1 -7 -6 -21 -9 -29 -5 -8 3
-15 2 -15 -2 0 -4 -20 -7 -45 -7 -25 0 -45 3 -45 6 0 4 -15 4 -32 0 -18 -4
-79 -7 -136 -6 -57 0 -106 -3 -108 -7 -3 -5 -10 -6 -15 -2 -15 9 -59 12 -59 5
0 -4 -9 -7 -20 -7 -11 0 -20 4 -20 9 0 5 -6 4 -13 -2 -8 -6 -17 -8 -21 -4 -8
9 -46 12 -46 4 0 -8 -69 -5 -77 2 -3 3 -16 2 -29 -3 -16 -7 -24 -6 -24 1 0 8
-5 7 -15 -1 -12 -10 -15 -10 -15 1 0 11 -2 11 -9 0 -8 -13 -12 -13 -27 0 -11
9 -15 9 -10 1 5 -9 -4 -11 -36 -9 -24 1 -49 6 -57 11 -9 6 -12 5 -7 -2 4 -7
-8 -10 -39 -8 -24 1 -48 0 -53 -3 -4 -3 -8 -50 -8 -103 0 -83 3 -98 16 -98 9
0 22 -6 29 -12 11 -10 13 -10 7 0 -5 8 0 12 13 12 10 0 27 3 37 7 13 5 15 3 9
-7 -5 -9 -4 -11 4 -6 7 4 162 9 345 10 183 2 338 6 344 10 7 4 12 2 12 -5 0
-8 4 -8 15 1 12 10 15 10 15 0 0 -10 3 -10 15 0 11 9 15 9 15 1 0 -8 5 -9 19
-1 13 7 22 7 26 0 4 -7 12 -7 24 0 10 5 21 6 25 3 3 -3 6 0 6 7 0 10 3 11 11
3 6 -6 18 -9 27 -6 11 5 13 2 8 -8 -4 -8 -1 -6 7 3 8 10 17 15 20 11 9 -8 67
-12 67 -4 0 3 65 6 145 6 80 0 145 3 145 7 0 4 14 3 30 -2 17 -5 28 -5 26 -1
-3 4 17 7 44 5 28 -1 50 2 50 7 0 6 6 7 13 2 17 -10 49 -15 44 -6 -3 5 52 8
121 8 70 -1 134 3 143 6 8 4 21 4 29 -1 7 -5 29 -2 52 6 21 7 38 9 38 4 0 -5
7 -6 17 -3 12 5 14 3 9 -8 -6 -11 -4 -10 6 1 14 16 36 19 54 8 6 -4 14 -4 18
0 4 4 38 8 74 9 37 1 83 4 102 6 19 2 41 0 48 -6 8 -6 12 -6 12 3 0 7 8 10 20
7 11 -3 20 0 20 5 0 7 5 6 13 -1 8 -6 17 -8 21 -4 3 4 46 8 94 9 48 2 87 3 87
4 0 1 12 3 28 4 15 2 27 -2 27 -8 0 -8 2 -8 8 0 9 14 62 24 62 12 0 -5 5 -6
12 -2 7 4 42 9 78 11 36 2 76 5 90 7 14 1 31 -3 39 -8 11 -9 13 -8 7 2 -6 10
-1 13 20 12 16 -1 31 -1 34 0 3 1 28 4 55 6 28 2 66 6 85 8 19 2 41 -2 49 -8
11 -8 13 -8 7 2 -6 11 10 15 40 11 4 0 11 5 15 13 7 11 9 11 9 -1 0 -9 6 -11
18 -6 9 4 36 7 60 7 32 0 42 4 43 17 0 9 1 63 2 121 l1 105 -48 1 c-26 0 -49
-2 -51 -6z"/>
<path d="M2767 3453 c-4 -3 -20 -6 -37 -5 -16 0 -32 -4 -35 -9 -4 -5 0 -9 7
-9 9 0 9 -3 -2 -10 -8 -5 -10 -10 -4 -10 6 0 11 -7 12 -15 1 -8 3 -22 4 -30 1
-8 5 -15 9 -15 4 0 6 -8 5 -17 -2 -10 3 -27 10 -38 8 -11 14 -30 14 -42 0 -13
4 -23 9 -23 10 0 32 -56 25 -63 -2 -2 2 -10 11 -17 8 -7 15 -19 15 -26 0 -8 5
-14 10 -14 6 0 10 -8 10 -19 0 -10 7 -24 15 -31 9 -7 13 -15 11 -18 -3 -2 8
-24 24 -48 17 -23 30 -47 30 -53 0 -6 5 -11 10 -11 6 0 10 -6 10 -14 0 -7 10
-24 23 -37 20 -22 29 -24 122 -24 88 1 100 3 103 19 3 13 0 16 -9 11 -8 -6
-10 -4 -5 4 5 7 0 21 -11 33 -10 11 -16 21 -14 22 8 2 -11 46 -20 46 -5 0 -8
3 -8 8 4 24 -2 42 -13 36 -8 -5 -9 -2 -4 11 4 10 0 28 -10 43 -9 13 -11 22 -6
18 6 -3 3 8 -6 26 -9 18 -17 43 -18 56 -2 13 -9 31 -16 40 -11 13 -11 14 2 7
12 -7 13 -6 3 6 -7 9 -15 31 -17 50 -3 19 -5 34 -6 34 -4 0 -11 44 -12 73 -1
17 -5 32 -10 32 -5 0 -7 4 -4 9 8 13 -76 10 -93 -3 -12 -9 -13 -8 -8 6 5 14 2
16 -16 10 -12 -4 -35 -7 -52 -6 -16 1 -36 -4 -44 -10 -12 -9 -13 -8 -8 7 7 18
5 21 -6 10z"/>
<path d="M3971 3445 c-1 -13 -4 -16 -9 -8 -11 18 -27 2 -29 -32 -4 -43 -8 -69
-14 -80 -3 -6 -4 -20 -3 -32 0 -13 -2 -23 -7 -23 -4 0 -8 -8 -8 -17 -1 -33
-13 -83 -20 -79 -3 2 -7 -6 -7 -17 -2 -32 -11 -64 -28 -97 -10 -21 -11 -30 -2
-34 7 -3 7 -5 -1 -5 -7 -1 -13 -10 -13 -21 0 -11 -5 -20 -11 -20 -5 0 -8 -4
-5 -8 3 -5 -1 -20 -9 -35 -7 -14 -11 -28 -7 -31 3 -3 0 -6 -6 -6 -7 0 -12 -9
-12 -21 0 -11 -4 -18 -9 -15 -5 4 -8 -2 -6 -11 2 -10 4 -25 4 -33 1 -12 3 -12
9 -2 5 8 16 10 27 6 14 -6 16 -4 10 7 -7 11 -6 12 6 3 11 -8 103 -11 154 -5 6
1 21 24 34 51 13 28 27 50 32 50 5 0 9 9 9 20 0 11 4 20 9 20 10 0 27 39 23
53 -1 4 2 7 8 7 6 0 9 6 8 13 -2 6 3 11 10 9 8 -1 11 2 8 6 -3 5 3 27 13 48
11 21 17 42 14 46 -2 5 1 8 7 8 6 0 8 5 5 10 -3 6 -1 10 5 10 6 0 8 5 5 10 -3
6 -1 10 4 10 6 0 10 3 9 8 -1 4 4 23 11 42 8 19 15 44 15 55 2 28 15 47 28 39
6 -4 6 2 -1 15 -7 11 -8 21 -4 21 4 0 9 16 10 35 2 34 0 35 -30 33 -18 -1 -38
-6 -46 -12 -11 -8 -13 -8 -8 1 9 15 -32 14 -52 -1 -12 -9 -13 -7 -8 7 4 11 3
16 -3 12 -18 -11 -110 -11 -114 0 -2 5 -5 1 -5 -10z"/>
<path d="M1723 3404 c-5 -13 -7 -13 -14 -2 -7 10 -12 9 -26 -6 -10 -10 -12
-16 -5 -12 11 6 18 -18 13 -46 0 -5 4 -8 10 -8 8 0 7 -5 -1 -16 -11 -12 -11
-15 1 -12 9 2 14 -5 13 -19 -1 -13 3 -23 8 -23 5 0 6 -4 3 -10 -3 -5 -2 -10 4
-10 6 0 8 -7 5 -15 -4 -8 -1 -15 6 -15 6 0 8 -4 5 -10 -3 -5 -1 -10 5 -10 7 0
10 -7 6 -15 -3 -8 2 -18 10 -23 9 -5 15 -12 15 -15 -2 -26 15 -70 33 -82 11
-8 17 -15 13 -15 -7 0 20 -57 33 -70 16 -16 38 -68 32 -75 -4 -5 -1 -5 6 -1 7
4 12 1 12 -8 0 -9 5 -16 11 -16 5 0 7 -4 4 -10 -3 -5 -2 -10 4 -10 5 0 13 -9
16 -20 4 -11 10 -18 15 -15 5 3 12 0 16 -6 4 -8 9 -7 15 2 7 11 9 11 9 -1 0
-13 2 -13 9 -1 8 12 12 12 25 2 13 -11 16 -11 16 0 0 12 2 12 9 0 7 -11 9 -11
13 0 4 12 7 12 21 0 10 -7 17 -9 17 -4 0 6 11 8 24 6 34 -7 39 10 17 50 -11
19 -17 38 -14 41 4 3 1 6 -5 6 -7 0 -11 3 -10 8 1 8 -7 30 -27 77 -8 16 -11
33 -9 37 3 4 0 8 -7 8 -6 0 -9 8 -6 20 3 10 2 19 -2 18 -18 -2 -22 4 -11 17
10 12 10 15 0 15 -8 0 -10 3 -7 7 4 3 0 14 -9 24 -9 10 -14 25 -11 34 4 8 2
15 -3 15 -5 0 -7 7 -3 16 3 9 1 19 -5 23 -7 4 -13 28 -14 54 -2 26 -6 47 -10
47 -3 0 -5 8 -3 18 1 9 -5 29 -13 44 -14 25 -17 26 -30 10 -7 -9 -10 -11 -6
-3 5 10 0 12 -26 6 -25 -5 -31 -4 -25 5 6 9 4 11 -5 5 -21 -13 -82 -16 -74 -3
5 7 2 8 -6 3 -19 -12 -82 -16 -75 -5 4 6 4 10 0 10 -3 0 -8 -7 -12 -16z"/>
<path d="M2842 2798 c-6 -13 -10 -42 -9 -66 1 -23 -2 -44 -8 -46 -7 -3 -7 -5
0 -5 11 -1 11 -103 0 -120 -3 -6 -1 -11 5 -11 6 0 9 -4 6 -8 -3 -5 -384 -8
-847 -8 -462 1 -843 -2 -846 -7 -2 -4 -8 -5 -13 -2 -4 3 -10 -2 -14 -10 -3 -8
0 -15 6 -15 7 0 7 -4 -1 -14 -9 -11 -9 -16 0 -21 8 -6 7 -10 -2 -16 -12 -7
-12 -9 0 -9 11 0 11 -3 1 -15 -10 -12 -10 -15 0 -15 10 0 10 -3 0 -15 -10 -12
-10 -15 0 -15 10 0 10 -3 0 -15 -10 -12 -9 -15 6 -15 14 0 16 -2 6 -9 -10 -6
-9 -10 7 -14 12 -3 21 0 21 5 0 6 6 5 15 -2 12 -10 15 -10 15 0 0 10 3 10 15
0 12 -10 15 -10 15 0 0 10 3 10 15 0 12 -10 15 -10 15 1 0 12 2 12 9 0 7 -10
10 -10 13 -1 3 10 9 10 26 1 17 -9 22 -9 22 0 0 8 4 8 15 -1 12 -10 15 -10 15
0 0 10 3 10 15 0 12 -10 15 -10 15 1 0 12 2 12 9 0 6 -9 11 -10 15 -2 10 15
29 14 20 -1 -5 -10 -4 -10 6 -1 9 8 19 9 32 2 13 -7 18 -6 18 2 0 8 4 8 15 -1
12 -10 15 -10 15 0 0 10 3 10 15 0 12 -10 15 -10 15 0 0 10 3 10 15 0 12 -10
15 -10 15 0 0 9 3 10 13 1 8 -6 16 -8 19 -5 9 8 162 9 176 0 7 -4 12 -3 12 1
0 10 63 8 79 -2 6 -3 11 0 11 7 1 8 6 6 15 -6 11 -15 15 -16 15 -5 0 10 10 14
34 13 19 -1 39 -5 45 -9 6 -3 11 -1 11 6 0 8 4 8 15 -1 12 -10 15 -10 15 1 0
11 2 11 10 -1 8 -12 10 -12 10 -1 0 10 3 11 13 2 8 -6 16 -8 19 -5 9 8 173 9
186 0 7 -4 12 -2 12 5 0 8 4 8 15 -1 12 -10 15 -10 15 0 0 10 3 10 15 0 12
-10 15 -10 15 1 0 12 2 12 9 0 6 -9 11 -10 15 -2 10 15 29 14 20 -1 -5 -10 -4
-10 6 -1 9 8 19 9 32 2 13 -7 18 -6 18 2 0 8 4 8 15 -1 12 -10 15 -10 15 0 0
10 3 10 15 0 12 -10 15 -10 15 0 0 10 3 10 15 0 9 -7 15 -8 15 -2 0 8 15 9 38
3 6 -2 -52 -81 -59 -81 -5 0 -9 -6 -9 -12 0 -7 -25 -40 -55 -72 -30 -33 -55
-64 -55 -69 0 -6 -2 -8 -5 -5 -3 2 -39 -28 -81 -69 -42 -40 -83 -73 -91 -73
-8 0 -12 -4 -9 -9 3 -4 -6 -13 -19 -19 -14 -7 -25 -16 -25 -22 0 -5 -7 -10
-15 -10 -8 0 -15 -4 -15 -10 0 -5 -7 -10 -15 -10 -8 0 -15 -4 -15 -8 0 -5 -12
-15 -27 -23 -15 -8 -38 -22 -49 -33 -12 -10 -26 -18 -31 -19 -4 0 -14 -7 -22
-15 -8 -7 -33 -25 -55 -39 -23 -14 -44 -31 -48 -37 -5 -6 -8 -7 -8 -1 0 6 -4
5 -8 -2 -4 -6 -14 -13 -22 -15 -8 -2 -23 -11 -34 -20 -11 -10 -26 -18 -33 -18
-7 0 -13 -5 -13 -11 0 -5 -4 -8 -9 -4 -5 3 -15 -1 -23 -7 -7 -7 -35 -24 -63
-38 -27 -14 -51 -28 -53 -32 -2 -5 -9 -8 -17 -8 -7 0 -33 -12 -59 -26 -25 -14
-50 -23 -56 -19 -6 4 -9 3 -8 -2 2 -4 -1 -9 -6 -10 -5 -1 -12 -6 -15 -12 -4
-6 -19 -12 -33 -13 -15 -1 -24 -6 -22 -10 4 -6 -75 -33 -85 -28 -2 1 -7 -3
-11 -10 -4 -6 -17 -12 -28 -13 -12 -1 -22 -4 -22 -7 0 -4 -6 -7 -12 -8 -36 -3
-54 -8 -59 -16 -4 -5 -19 -10 -34 -11 -15 -2 -40 -9 -56 -15 -26 -11 -29 -17
-29 -61 0 -45 2 -49 24 -49 14 0 28 5 31 10 5 8 11 8 19 1 7 -6 16 -8 20 -4 3
4 17 8 29 10 12 2 33 6 47 10 14 3 31 5 37 4 7 -1 13 3 13 9 0 6 5 8 11 4 6
-3 15 0 20 7 7 12 9 12 9 0 0 -11 3 -11 17 0 9 8 18 13 20 11 7 -6 63 10 63
18 0 4 10 6 22 2 11 -3 19 -1 16 4 -4 5 8 10 25 11 17 1 35 7 41 13 5 5 20 10
32 10 12 0 24 4 26 10 2 5 17 11 35 13 17 2 38 9 46 15 8 7 17 9 20 5 4 -3 7
-2 7 4 0 10 46 28 63 25 4 -1 7 3 7 9 0 6 7 9 15 5 8 -3 15 0 15 6 0 6 3 9 6
5 4 -3 13 1 21 9 8 8 19 12 24 9 5 -4 9 -1 9 4 0 6 3 10 8 9 4 -1 17 3 30 10
12 7 22 9 22 5 0 -4 4 -3 8 2 14 19 72 46 84 39 6 -4 8 -3 4 4 -5 8 31 29 42
23 1 0 11 8 22 19 11 11 27 20 35 20 8 0 15 5 15 11 0 5 4 8 9 5 4 -3 19 3 31
14 13 11 27 20 32 20 5 0 36 18 69 40 32 23 59 37 59 33 0 -4 5 0 11 10 6 9
14 15 20 12 5 -4 9 1 9 9 0 9 3 15 8 14 12 -4 150 94 204 145 10 9 21 17 26
17 4 0 18 14 32 30 14 17 28 30 32 30 11 0 78 72 78 83 0 4 5 5 10 2 6 -3 10
-1 10 5 0 6 6 18 14 26 8 7 24 26 36 41 28 36 37 20 30 -57 -3 -34 -4 -63 -1
-65 8 -8 6 -95 -2 -95 -5 0 -5 -5 -2 -10 11 -18 11 -190 0 -190 -7 0 -7 -3 0
-8 6 -4 10 -38 10 -77 0 -38 -4 -73 -10 -77 -7 -5 -7 -8 0 -8 6 0 10 -25 10
-55 0 -30 -4 -55 -9 -55 -6 0 -6 -4 0 -10 6 -6 7 -35 4 -70 -3 -34 -4 -63 -1
-65 9 -9 6 -95 -4 -95 -7 0 -7 -3 0 -8 6 -4 10 -20 10 -37 0 -28 2 -30 40 -30
22 0 46 -5 54 -9 10 -7 12 -6 6 4 -6 10 -2 11 19 6 18 -4 26 -2 26 6 0 9 3 9
8 2 4 -6 27 -10 52 -9 25 1 55 -2 68 -7 15 -5 21 -4 17 2 -3 6 -1 10 6 10 6 0
9 8 6 20 -3 11 -1 20 4 20 6 0 5 8 -1 20 -8 14 -8 20 0 20 8 0 8 6 0 20 -8 14
-8 20 0 20 8 0 8 6 0 20 -8 14 -8 20 0 20 8 0 8 6 0 20 -8 14 -8 20 0 20 8 0
8 6 0 20 -8 14 -8 20 0 20 8 0 8 6 0 20 -8 14 -8 20 0 20 8 0 8 6 0 20 -8 14
-8 20 0 20 8 0 8 6 0 20 -6 11 -7 20 -3 20 4 0 6 36 3 80 -3 44 -1 80 3 80 4
0 3 9 -3 20 -6 11 -7 20 -3 20 4 0 6 45 3 100 -3 55 -1 100 3 100 4 0 3 9 -3
20 -6 11 -7 20 -3 20 4 0 6 45 3 100 -3 55 -2 100 2 100 4 0 4 11 -1 23 -5 13
-6 29 -1 36 4 7 6 23 3 35 -3 18 -1 17 19 -8 13 -16 42 -50 66 -74 23 -25 42
-50 42 -54 0 -5 5 -6 10 -3 6 3 10 -1 10 -9 0 -9 6 -16 14 -16 8 0 18 -9 21
-20 4 -11 11 -18 16 -15 5 4 9 -1 9 -9 0 -9 7 -16 16 -16 8 0 12 -4 9 -10 -3
-5 -1 -10 5 -10 6 0 24 -12 39 -28 15 -15 45 -41 65 -57 36 -29 47 -37 95 -77
12 -10 26 -18 31 -18 6 0 10 -3 10 -7 0 -5 24 -24 54 -43 30 -19 52 -39 49
-45 -4 -5 -3 -7 2 -3 5 5 23 -3 41 -17 18 -14 37 -25 43 -25 6 0 11 -4 11 -10
0 -5 3 -9 8 -8 13 5 52 -28 44 -37 -4 -5 -1 -5 6 -1 7 5 21 2 30 -6 17 -13 47
-31 89 -53 13 -7 19 -15 15 -19 -4 -4 -2 -6 3 -4 12 4 147 -62 157 -77 4 -5 8
-7 8 -3 0 4 25 -6 57 -22 31 -16 60 -27 65 -24 4 3 8 0 8 -6 0 -6 5 -8 10 -5
6 3 13 0 16 -9 3 -8 12 -12 19 -10 7 3 16 0 20 -5 3 -6 11 -9 16 -6 5 4 9 1 9
-6 0 -6 8 -9 20 -6 10 3 18 0 17 -5 -1 -6 9 -12 21 -13 13 -1 27 -8 32 -15 6
-10 9 -9 13 1 4 10 6 10 6 2 1 -7 10 -13 20 -13 11 0 23 -5 26 -11 4 -6 13 -8
21 -5 8 3 14 1 14 -4 0 -5 6 -7 14 -4 8 3 17 1 21 -5 3 -6 17 -11 31 -11 13 0
24 -3 24 -7 0 -5 19 -9 42 -11 23 -1 45 -6 48 -10 5 -8 55 -15 98 -14 12 0 22
-3 22 -7 0 -12 30 -9 30 3 0 6 5 3 11 -6 17 -31 34 0 34 61 -1 31 -4 61 -8 67
-3 6 -3 14 1 18 11 11 8 100 -3 108 -6 5 -6 8 2 8 6 0 9 8 6 19 -3 13 -12 18
-29 16 -13 -1 -24 1 -24 5 0 5 -13 7 -30 6 -16 -1 -30 2 -30 7 0 4 -4 5 -10 2
-5 -3 -18 -1 -28 4 -13 7 -22 7 -30 -1 -9 -9 -12 -9 -12 -1 0 9 -75 34 -115
39 -5 0 -19 4 -30 8 -11 5 -27 10 -35 14 -8 3 -21 4 -27 3 -7 -1 -13 3 -13 9
0 5 -3 9 -7 9 -21 -3 -43 2 -55 14 -12 11 -28 16 -65 19 -7 1 -13 6 -13 11 0
5 -9 7 -20 4 -10 -3 -21 0 -23 6 -1 5 -14 12 -27 14 -13 2 -27 8 -31 14 -3 6
-10 10 -15 10 -18 -1 -73 23 -68 30 2 4 -4 6 -13 5 -19 -3 -45 9 -75 33 -10 8
-18 11 -18 6 0 -4 -7 -1 -16 6 -9 7 -23 14 -32 15 -8 2 -18 6 -21 11 -3 4 -13
9 -21 11 -8 2 -17 8 -18 13 -2 5 -7 7 -12 4 -4 -3 -13 2 -20 10 -7 8 -21 15
-31 15 -11 0 -19 4 -19 8 0 5 -16 14 -35 22 -19 8 -35 17 -35 22 0 4 -9 8 -20
8 -11 0 -20 5 -20 10 0 6 -7 10 -15 10 -8 0 -15 5 -15 10 0 6 -7 10 -15 10 -9
0 -25 9 -37 20 -12 11 -28 20 -35 20 -7 0 -13 5 -13 10 0 6 -5 10 -10 10 -6 0
-20 9 -32 20 -12 11 -28 20 -35 20 -7 0 -13 4 -13 9 0 5 -8 12 -17 15 -10 3
-32 19 -49 35 -18 17 -35 27 -38 24 -3 -4 -6 1 -6 11 0 9 -4 15 -9 11 -5 -3
-17 5 -25 17 -9 12 -16 19 -16 14 0 -4 -13 6 -29 22 -16 16 -42 40 -58 53 -31
26 -49 59 -33 59 6 0 10 -5 10 -11 0 -5 5 -7 12 -3 15 9 58 10 81 1 10 -4 17
-2 17 5 0 7 5 6 15 -2 12 -10 15 -10 15 1 0 11 2 11 10 -1 5 -8 10 -10 10 -4
0 12 29 12 48 0 6 -4 12 -3 12 1 0 10 63 8 79 -2 6 -3 11 -1 11 6 0 8 4 8 15
-1 8 -7 15 -8 15 -4 0 10 63 10 79 -1 6 -3 11 -1 11 6 0 8 4 8 15 -1 12 -10
15 -10 15 1 0 11 2 11 10 -1 5 -8 10 -10 10 -5 0 11 190 12 209 1 6 -4 11 -3
11 1 0 10 63 8 79 -2 6 -3 11 0 11 7 1 8 6 6 15 -6 11 -15 15 -16 15 -5 0 10
10 14 34 13 19 -1 39 -5 45 -9 6 -3 11 -1 11 6 0 8 4 8 15 -1 12 -10 15 -10
15 1 0 11 2 11 10 -1 8 -12 10 -12 10 -1 0 10 3 11 13 2 8 -6 16 -8 19 -5 9 8
173 9 186 0 7 -4 12 -2 12 5 0 8 4 8 15 -1 12 -10 15 -10 15 0 0 10 3 10 15 0
12 -10 15 -10 15 1 0 12 2 12 9 0 6 -9 11 -10 15 -2 10 15 29 14 20 -1 -5 -10
-4 -10 6 -1 9 8 19 9 32 2 13 -7 18 -6 18 2 0 8 4 8 15 -1 12 -10 15 -10 15 0
0 10 3 10 15 0 12 -10 15 -10 15 0 0 10 3 10 15 0 12 -10 15 -10 15 1 0 9 3
10 10 3 13 -13 70 -5 71 10 0 6 2 28 5 49 3 28 0 36 -9 31 -9 -6 -9 -4 -1 7 7
8 11 25 9 39 -1 14 -3 34 -4 45 -1 20 -8 20 -848 19 -467 -1 -852 1 -858 3
-11 3 -12 69 -2 79 4 4 2 15 -4 25 -7 13 -6 19 1 19 6 0 9 4 6 8 -3 5 -6 38
-7 75 -2 69 -6 76 -28 55 -10 -9 -12 -9 -7 -1 3 6 2 14 -4 18 -5 3 -10 2 -10
-3 0 -10 -30 -9 -48 2 -7 4 -12 2 -12 -4 0 -6 -5 -8 -10 -5 -6 4 -18 1 -27 -7
-10 -8 -14 -8 -10 -1 4 6 3 14 -3 18 -5 3 -10 3 -10 -2 0 -4 -11 -9 -25 -9
-14 -1 -23 2 -20 6 3 5 -9 5 -27 -1 -41 -11 -41 -11 -33 1 3 6 2 10 -3 10 -5
0 -14 -10 -20 -22z"/>
</g>
</svg>
