<?xml version="1.0" standalone="no"?>
<!DOCTYPE svg PUBLIC "-//W3C//DTD SVG 20010904//EN"
 "http://www.w3.org/TR/2001/REC-SVG-20010904/DTD/svg10.dtd">
<svg version="1.0" xmlns="http://www.w3.org/2000/svg"
 width="700.000000pt" height="700.000000pt" viewBox="0 0 700.000000 700.000000"
 preserveAspectRatio="xMidYMid meet">
<metadata>
Created by potrace 1.14, written by Peter Selinger 2001-2017
</metadata>
<g transform="translate(0.000000,700.000000) scale(0.100000,-0.100000)"
fill="#000000" stroke="none">
<path d="M3378 6415 c-2 -1 -48 -5 -103 -8 -541 -33 -1108 -253 -1565 -606
-452 -349 -811 -860 -983 -1396 -55 -173 -109 -405 -109 -471 0 -49 29 -98 71
-122 l38 -22 949 1 c522 1 960 4 973 8 17 5 36 28 63 80 93 177 212 302 368
388 64 35 186 81 239 89 20 3 54 9 77 13 60 11 209 4 293 -15 124 -27 274
-100 368 -178 82 -68 172 -182 224 -283 21 -43 49 -83 61 -90 18 -10 229 -12
977 -13 l954 0 38 22 c41 23 68 67 70 114 4 98 -105 504 -183 684 -130 299
-281 546 -474 776 -83 101 -276 290 -374 368 -47 37 -94 75 -105 84 -96 79
-390 253 -535 316 -36 15 -83 36 -105 46 -55 24 -264 94 -355 119 -138 38
-323 70 -490 86 -64 7 -377 15 -382 10z"/>
<path d="M3435 4079 c-169 -22 -314 -109 -409 -242 -126 -178 -143 -397 -47
-592 99 -200 277 -314 514 -329 61 -4 185 25 261 62 113 54 206 145 265 259
57 109 76 256 52 383 -15 74 -74 193 -128 257 -122 145 -326 226 -508 202z"/>
<path d="M692 3189 c-44 -22 -75 -73 -74 -121 1 -53 44 -253 82 -383 99 -338
254 -647 466 -930 108 -145 129 -170 259 -301 409 -414 921 -694 1480 -808 66
-14 143 -28 170 -31 28 -4 61 -9 75 -11 140 -23 632 -22 702 1 7 2 36 6 63 9
258 28 611 138 890 278 560 280 1021 742 1302 1303 126 251 227 558 266 805
14 91 10 118 -28 160 -45 50 -18 49 -1037 49 -1097 0 -970 14 -1033 -111 -201
-394 -669 -572 -1087 -414 -204 77 -385 243 -475 436 -12 25 -31 55 -42 67
l-21 22 -959 0 c-939 0 -959 0 -999 -20z"/>
</g>
</svg>
